HIERARCHY
ROOT Hips
{
	OFFSET 0.000000 0.000000 0.000000 
	CHANNELS 6 Xposition Yposition Zposition Yrotation Zrotation Xrotation 
	JOINT Lumbar
	{
		OFFSET 0.000000 0.000000 0.000000 
		CHANNELS 3 Zrotation Xrotation Yrotation
		JOINT Neck
		{
			OFFSET 0.000000 0.445665 0.000000 
			CHANNELS 3 Zrotation Xrotation Yrotation
			End Site
			{
				OFFSET 0.000000 0.227535 0.000000 
			}
		}
		JOINT RightShoulder
		{
			OFFSET 0.019635 0.377685 0.194865 
			CHANNELS 3 Zrotation Xrotation Yrotation
			JOINT RightElbow
			{
				OFFSET 0.000000 -0.243375 0.000000 
				CHANNELS 2 Zrotation Yrotation
				JOINT RightWrist
				{
					OFFSET 0.000000 -0.264825 0.000000 
					CHANNELS 2 Zrotation Xrotation
					End Site
					{
						OFFSET 0.006600 -0.176220 0.000990 
					}
				}
			}
		}
		JOINT LeftShoulder
		{
			OFFSET 0.019635 0.377685 -0.194865 
			CHANNELS 3 Zrotation Xrotation Yrotation
			JOINT LeftElbow
			{
				OFFSET 0.000000 -0.243375 0.000000 
				CHANNELS 2 Zrotation Yrotation
				JOINT LeftWrist
				{
					OFFSET 0.000000 -0.264825 0.000000 
					CHANNELS 2 Zrotation Xrotation
					End Site
					{
						OFFSET 0.006600 -0.176220 -0.000990 
					}
				}
			}
		}
	}
	JOINT RightHip
	{
		OFFSET 0.052140 -0.069960 0.075570 
		CHANNELS 3 Zrotation Xrotation Yrotation
		JOINT RightKnee
		{
			OFFSET 0.000000 -0.402270 0.000000 
			CHANNELS 1 Zrotation
			JOINT RightAnkle
			{
				OFFSET 0.000000 -0.404085 0.000000 
				CHANNELS 3 Zrotation Xrotation Yrotation
				End Site
				{
					OFFSET 0.204105 -0.089430 0.008415 
				}
			}
		}
	}
	JOINT LeftHip
	{
		OFFSET 0.052140 -0.069960 -0.075570 
		CHANNELS 3 Zrotation Xrotation Yrotation
		JOINT LeftKnee
		{
			OFFSET 0.000000 -0.402270 0.000000 
			CHANNELS 1 Zrotation
			JOINT LeftAnkle
			{
				OFFSET 0.000000 -0.404085 0.000000 
				CHANNELS 3 Zrotation Xrotation Yrotation
				End Site
				{
					OFFSET 0.204105 -0.089430 -0.008415 
				}
			}
		}
	}
}
MOTION
Frames: 25
Frame Time: 0.02
-0.00261 0.00021 0.0003 -169.95937 -39.07438 -1.0442 49.19546 1.76568 -3.55542 -2.93738 -2.30263 -0.12922 -41.62904 -11.84524 -14.92304 33.51527 92.4907 4.74761 1.41201 -52.55646 8.27136 6.30921 42.67569 -100.72584 10.72904 -1.4159 42.36021 0.11021 -8.60988 -19.31205 -6.24444 -3.43087 -2.37414 45.05401 2.9415 2.6757 -24.71207 -6.39507 3.1391 2.28736
-0.00246 0.00022 -0.00053 -169.68045 -39.02816 -0.95733 49.12318 1.79841 -3.50414 -2.94474 -2.36419 -0.16168 -41.79076 -12.02118 -14.68771 33.45685 92.83468 4.97237 1.41996 -52.20398 8.53951 5.72672 42.6267 -100.8942 10.90097 -1.40527 42.32269 0.11905 -8.60946 -19.32069 -6.24999 -3.4568 -2.39208 45.04741 2.94314 2.68684 -24.70042 -6.39969 3.12563 2.27588
-0.00231 0.00023 -0.00135 -169.40201 -38.98206 -0.8706 49.05092 1.83105 -3.45308 -2.95154 -2.42565 -0.19404 -41.95042 -12.19762 -14.45193 33.39858 93.17815 5.19679 1.42791 -51.84974 8.80795 5.14454 42.5775 -101.06277 11.07295 -1.39469 42.28535 0.12787 -8.60906 -19.32934 -6.25551 -3.48269 -2.40998 45.04092 2.94499 2.69896 -24.68881 -6.40429 3.11202 2.26435
-0.00216 0.00024 -0.00218 -169.12389 -38.93598 -0.78398 48.97884 1.86368 -3.40196 -2.95882 -2.48703 -0.2264 -42.11149 -12.37315 -14.21719 33.34034 93.52113 5.42089 1.43584 -51.49802 9.07539 4.56369 42.52863 -101.2307 11.24441 -1.38411 42.24795 0.13668 -8.60864 -19.33797 -6.26104 -3.50854 -2.42786 45.03435 2.94667 2.71027 -24.67719 -6.40889 3.09855 2.25289
-0.00202 0.00025 -0.003 -168.84542 -38.8898 -0.69727 48.90676 1.89642 -3.35062 -2.96678 -2.5485 -0.25887 -42.2749 -12.5479 -13.98319 33.28194 93.86454 5.64528 1.44379 -51.14874 9.34228 3.98286 42.48005 -101.39821 11.41571 -1.37347 42.21037 0.14552 -8.60819 -19.34658 -6.26658 -3.53443 -2.44577 45.02765 2.94804 2.7201 -24.66553 -6.4135 3.0853 2.24153
-0.00187 0.00026 -0.00383 -168.56704 -38.84384 -0.61052 48.8341 1.92883 -3.30017 -2.97109 -2.60994 -0.29102 -42.42652 -12.72794 -13.74361 33.22396 94.20818 5.86979 1.45173 -50.78392 9.61402 3.39777 42.42952 -101.56904 11.58914 -1.36301 42.17356 0.1543 -8.60791 -19.3553 -6.27209 -3.56032 -2.46365 45.02163 2.95088 2.73696 -24.65401 -6.41811 3.07094 2.22967
-0.00173 0.00027 -0.00466 -168.28884 -38.79751 -0.52394 48.76281 1.96185 -3.24791 -2.98296 -2.67134 -0.32375 -42.60244 -12.89684 -13.51589 33.16521 94.55065 6.09361 1.45966 -50.45173 9.87533 2.82247 42.38312 -101.7328 11.75786 -1.35221 42.1352 0.16317 -8.60728 -19.3638 -6.27764 -3.58617 -2.48155 45.01419 2.95085 2.74001 -24.64221 -6.42271 3.05879 2.21879
-0.00157 0.00028 -0.00548 -168.01036 -38.7515 -0.43719 48.69005 1.99432 -3.19745 -2.98745 -2.73284 -0.35597 -42.75461 -13.07655 -13.27656 33.10714 94.8948 6.31843 1.46764 -50.08769 10.14695 2.23712 42.33263 -101.90347 11.93134 -1.34171 42.09833 0.17197 -8.60699 -19.37251 -6.28317 -3.61208 -2.49946 45.00817 2.9533 2.75514 -24.63069 -6.42732 3.04469 2.20705
-0.00141 0.00029 -0.00631 -167.73182 -38.70594 -0.35022 48.61625 2.02611 -3.14869 -2.98444 -2.79425 -0.38751 -42.88284 -13.26761 -13.02539 33.04999 95.23885 6.54319 1.47553 -49.69106 10.42872 1.64302 42.27818 -102.08122 12.10917 -1.33164 42.06302 0.18067 -8.60706 -19.38144 -6.2886 -3.63796 -2.51732 45.00346 2.95944 2.78782 -24.61945 -6.43192 3.02783 2.19406
-0.00133 0.00031 -0.00712 -167.45444 -38.65797 -0.26449 48.55071 2.06181 -3.08863 -3.02915 -2.85553 -0.42277 -43.16408 -13.38781 -12.84941 32.98782 95.57702 6.76446 1.48348 -49.50094 10.64472 1.10985 42.24961 -102.21416 12.25755 -1.31927 42.01797 0.1899 -8.60486 -19.389 -6.29441 -3.66372 -2.53529 44.98993 2.94633 2.72791 -24.6064 -6.43651 3.02567 2.18768
-0.00106 0.0003 -0.00798 -167.17417 -38.61498 -0.17616 48.46632 2.08924 -3.05339 -2.97032 -2.91749 -0.45031 -43.11293 -13.6609 -12.51043 32.9361 95.93164 6.99549 1.49158 -48.86332 11.00404 0.44157 42.16453 -102.44415 12.47084 -1.31167 41.99396 0.19803 -8.60757 -19.39951 -6.29951 -3.68991 -2.55311 44.99581 2.97257 2.8579 -24.59731 -6.44116 2.99327 2.16772
-0.00033 0.00024 -0.00896 -166.88935 -38.58655 -0.08068 48.34124 2.09401 -3.07843 -2.64797 -2.97792 -0.45555 -42.21636 -14.32973 -11.75601 32.91381 96.30404 7.23496 1.4988 -47.07949 11.72215 -0.54478 41.93828 -102.92079 12.8393 -1.31785 42.02437 0.2028 -8.62347 -19.41756 -6.30195 -3.71587 -2.56977 45.04923 3.11829 3.55943 -24.59799 -6.44575 2.87063 2.10714
0.0006 0.00015 -0.00999 -166.60105 -38.56302 0.01735 48.19524 2.0906 -3.12956 -2.21786 -3.03957 -0.45325 -40.97219 -15.15605 -10.83281 32.90141 96.70153 7.48821 1.50704 -44.83 12.58946 -1.67434 41.65267 -103.49707 13.27565 -1.32872 42.07666 0.20647 -8.64483 -19.43862 -6.30381 -3.74246 -2.58638 45.12342 3.30146 4.44247 -24.60292 -6.45045 2.71893 2.03355
0.00148 8e-05 -0.011 -166.31203 -38.53658 0.11426 48.05156 2.09075 -3.17419 -1.82357 -3.10297 -0.45513 -39.84537 -15.92639 -9.96501 32.88463 97.10099 7.74644 1.51487 -42.74159 13.41245 -2.77566 41.3852 -104.04244 13.69796 -1.33692 42.12096 0.21092 -8.66324 -19.45872 -6.30642 -3.76977 -2.60356 45.1916 3.45988 5.20932 -24.60653 -6.45521 2.5853 1.96813
0.00218 -1e-05 -0.01198 -166.03246 -38.51275 0.21126 47.93797 2.09103 -3.19739 -1.48446 -3.15697 -0.45384 -38.89525 -16.63303 -9.18343 32.86938 97.42973 7.95495 1.51991 -40.87018 14.14116 -3.73101 41.15509 -104.53332 14.05592 -1.34721 42.15653 0.21438 -8.68161 -19.47731 -6.30701 -3.79313 -2.61863 45.24451 3.6507 6.11817 -24.60727 -6.45942 2.43121 1.89318
0.0033 -7e-05 -0.01305 -165.73269 -38.485 0.30837 47.75702 2.08975 -3.27001 -1.00506 -3.23045 -0.45732 -37.48727 -17.50743 -8.1865 32.85078 97.92969 8.27314 1.53422 -38.43069 15.09585 -5.0127 40.83288 -105.1538 14.55584 -1.35453 42.21614 0.21938 -8.70387 -19.49951 -6.31162 -3.82448 -2.63784 45.33519 3.78329 6.7751 -24.61537 -6.46493 2.31267 1.83494
0.00548 -2e-05 -0.01429 -165.37534 -38.44164 0.40742 47.39246 2.08066 -3.48426 -0.1632 -3.36059 -0.47624 -34.96339 -18.825 -6.59761 32.84103 98.72348 8.8605 1.54356 -34.58555 16.6847 -7.25947 40.27098 -106.16599 15.49744 -1.34994 42.33083 0.23161 -8.71253 -19.53341 -6.32804 -3.88128 -2.67056 45.51614 3.74272 6.68413 -24.63986 -6.47301 2.30086 1.82639
0.00808 6e-05 -0.01561 -164.99831 -38.39454 0.50591 46.96104 2.07142 -3.74497 0.81586 -3.50957 -0.50015 -31.97834 -20.30226 -4.80334 32.82305 99.70769 9.55924 1.56589 -30.17518 18.48551 -9.81087 39.61714 -107.29023 16.56484 -1.34244 42.46993 0.24512 -8.72814 -19.57057 -6.34855 -3.94556 -2.70712 45.73598 3.64296 6.33487 -24.67239 -6.48266 2.32549 1.83499
0.01052 0.00014 -0.01691 -164.63198 -38.35185 0.60333 46.5624 2.06568 -3.97711 1.73108 -3.64799 -0.52151 -29.16385 -21.69451 -3.13064 32.79625 100.73492 10.2322 1.60463 -25.99225 20.16061 -12.15826 39.00702 -108.33004 17.53413 -1.3383 42.60191 0.25605 -8.75701 -19.60438 -6.36668 -4.00395 -2.74046 45.94399 3.57223 6.10883 -24.70286 -6.49215 2.3326 1.83553
0.01281 0.00019 -0.01816 -164.25797 -38.29905 0.70701 46.15415 2.04468 -4.24249 2.65619 -3.7954 -0.54381 -26.50472 -23.14564 -1.33993 32.82566 101.27062 10.81798 1.55722 -21.91966 21.97136 -14.78881 38.39199 -109.53128 18.68817 -1.32678 42.71842 0.27467 -8.72116 -19.64538 -6.3865 -4.07239 -2.77976 46.12836 3.49334 5.86406 -24.72582 -6.49902 2.34304 1.83689
0.01552 0.00029 -0.01952 -163.8955 -38.2649 0.79679 45.74876 2.05617 -4.44826 3.59206 -3.92793 -0.56541 -23.41354 -24.50894 0.26046 32.73236 102.80655 11.59006 1.68227 -17.48616 23.53994 -16.89839 37.7594 -110.40094 19.47443 -1.32857 42.87196 0.2785 -8.81618 -19.67315 -6.40437 -4.12228 -2.80791 46.37055 3.41748 5.59514 -24.76744 -6.5121 2.3552 1.84057
0.01923 0.00052 -0.0212 -163.56854 -38.29571 0.85429 45.38187 2.15192 -4.48745 4.52051 -4.01984 -0.58424 -19.27538 -25.5983 1.20891 32.3356 107.65931 13.03896 2.36856 -12.22505 24.45776 -17.51433 37.16366 -110.51098 19.32105 -1.38035 43.12753 0.23311 -9.31932 -19.65484 -6.4107 -4.1138 -2.80109 46.7662 3.35924 5.31661 -24.84874 -6.53837 2.36671 1.84835
0.02334 0.0008 -0.02298 -163.25419 -38.34313 0.89677 45.01817 2.2813 -4.46342 5.4542 -4.09505 -0.60216 -14.71567 -26.59119 1.97278 31.81168 113.40995 14.63955 3.21295 -6.61964 25.11227 -17.59561 36.54544 -110.25395 18.77646 -1.44417 43.41822 0.17421 -9.9457 -19.62462 -6.41578 -4.08729 -2.78345 47.21788 3.3068 5.02265 -24.9504 -6.57138 2.37826 1.85761
0.02729 0.00105 -0.02471 -162.93477 -38.37456 0.94215 44.64308 2.39914 -4.46174 6.38852 -4.17474 -0.6203 -10.32664 -27.62288 2.86936 31.32105 118.34192 16.04179 3.92521 -1.15055 25.83884 -17.90241 35.89221 -110.03758 18.33616 -1.49309 43.68908 0.12695 -10.48281 -19.60572 -6.42501 -4.07267 -2.77293 47.64179 3.25503 4.73919 -25.04916 -6.60377 2.38751 1.86496
0.03117 0.00136 -0.02646 -162.61156 -38.44113 1.00386 44.30535 2.50178 -4.48761 7.31895 -4.26873 -0.63943 -6.00214 -28.683 3.56426 30.92394 124.97193 17.97983 4.88637 4.26495 26.76766 -18.27508 35.41249 -110.33634 18.19606 -1.578 43.97761 0.05696 -11.15716 -19.56244 -6.4198 -4.04311 -2.75348 48.0773 3.18755 4.43321 -25.12123 -6.62634 2.4073 1.87796
